<?xml version="1.0" encoding="UTF-8" standalone="no"?><!DOCTYPE svg PUBLIC "-//W3C//DTD SVG 1.1//EN" "http://www.w3.org/Graphics/SVG/1.1/DTD/svg11.dtd"><!-- Generated by graphviz version 2.40.1 (20161225.0304)
 --><!-- Title: AFD Pages: 1 --><svg xmlns="http://www.w3.org/2000/svg" xmlns:xlink="http://www.w3.org/1999/xlink" width="319pt" height="153pt" viewBox="0.00 0.00 318.55 153.19">
<g id="graph0" class="graph" transform="scale(1 1) rotate(0) translate(4 149.1869)">
<title>AFD</title>
<polygon fill="#ffffff" stroke="transparent" points="-4,4 -4,-149.1869 314.5476,-149.1869 314.5476,4 -4,4"/>
<!-- q0 -->
<g id="node1" class="node">
<title>q0</title>
<ellipse fill="none" stroke="#000000" cx="24.6935" cy="-24.6935" rx="20.8568" ry="20.8568"/>
<ellipse fill="none" stroke="#000000" cx="24.6935" cy="-24.6935" rx="24.8884" ry="24.8884"/>
<text text-anchor="middle" x="24.6935" y="-20.4935" font-family="Times,serif" font-size="14.00" fill="#000000">q0</text>
</g>
<!-- q1 -->
<g id="node2" class="node">
<title>q1</title>
<ellipse fill="none" stroke="#000000" cx="113.0804" cy="-72.6935" rx="20.8887" ry="20.8887"/>
<text text-anchor="middle" x="113.0804" y="-68.4935" font-family="Times,serif" font-size="14.00" fill="#000000">q1</text>
</g>
<!-- q0&#45;&gt;q1 -->
<g id="edge2" class="edge">
<title>q0-&gt;q1</title>
<path fill="none" stroke="#000000" d="M46.5419,-36.5586C58.3556,-42.9743 73.0603,-50.9599 85.6395,-57.7912"/>
<polygon fill="#000000" stroke="#000000" points="84.3034,-61.0484 94.7615,-62.7451 87.6441,-54.897 84.3034,-61.0484"/>
<text text-anchor="middle" x="70.8869" y="-55.8935" font-family="Times,serif" font-size="14.00" fill="#000000">1</text>
</g>
<!-- q2 -->
<g id="node3" class="node">
<title>q2</title>
<ellipse fill="none" stroke="#000000" cx="197.4673" cy="-49.6935" rx="20.8887" ry="20.8887"/>
<text text-anchor="middle" x="197.4673" y="-45.4935" font-family="Times,serif" font-size="14.00" fill="#000000">q2</text>
</g>
<!-- q0&#45;&gt;q2 -->
<g id="edge1" class="edge">
<title>q0-&gt;q2</title>
<path fill="none" stroke="#000000" d="M49.6004,-22.6736C71.8493,-21.4114 105.2388,-20.8562 133.7738,-25.8935 145.3738,-27.9412 147.7254,-30.6086 158.7738,-34.6935 161.8823,-35.8428 165.123,-37.0633 168.3481,-38.2925"/>
<polygon fill="#000000" stroke="#000000" points="167.2385,-41.6157 177.8282,-41.9429 169.7539,-35.0832 167.2385,-41.6157"/>
<text text-anchor="middle" x="113.0804" y="-30.8935" font-family="Times,serif" font-size="14.00" fill="#000000">0</text>
</g>
<!-- q1&#45;&gt;q1 -->
<g id="edge3" class="edge">
<title>q1-&gt;q1</title>
<path fill="none" stroke="#000000" d="M105.4822,-92.2043C104.3133,-102.2929 106.846,-111.3869 113.0804,-111.3869 117.0743,-111.3869 119.549,-107.6547 120.5046,-102.3198"/>
<polygon fill="#000000" stroke="#000000" points="124.006,-102.263 120.6785,-92.2043 117.007,-102.1426 124.006,-102.263"/>
<text text-anchor="middle" x="113.0804" y="-115.5869" font-family="Times,serif" font-size="14.00" fill="#000000">0</text>
</g>
<!-- q1&#45;&gt;q2 -->
<g id="edge4" class="edge">
<title>q1-&gt;q2</title>
<path fill="none" stroke="#000000" d="M133.0789,-67.2428C143.3034,-64.456 155.9587,-61.0068 167.3365,-57.9057"/>
<polygon fill="#000000" stroke="#000000" points="168.5922,-61.1912 177.3199,-55.1847 166.7514,-54.4376 168.5922,-61.1912"/>
<text text-anchor="middle" x="155.2738" y="-66.8935" font-family="Times,serif" font-size="14.00" fill="#000000">1</text>
</g>
<!-- q2&#45;&gt;q1 -->
<g id="edge5" class="edge">
<title>q2-&gt;q1</title>
<path fill="none" stroke="#000000" d="M178.4569,-40.9091C170.1173,-38.2488 160.3049,-36.7641 151.7738,-39.8935 145.5885,-42.1623 139.7138,-45.9063 134.4965,-50.0694"/>
<polygon fill="#000000" stroke="#000000" points="132.056,-47.5555 126.8887,-56.8048 136.6961,-52.7966 132.056,-47.5555"/>
<text text-anchor="middle" x="155.2738" y="-44.8935" font-family="Times,serif" font-size="14.00" fill="#000000">0</text>
</g>
<!-- q3 -->
<g id="node4" class="node">
<title>q3</title>
<ellipse fill="none" stroke="#000000" cx="285.8542" cy="-85.6935" rx="20.8568" ry="20.8568"/>
<ellipse fill="none" stroke="#000000" cx="285.8542" cy="-85.6935" rx="24.8884" ry="24.8884"/>
<text text-anchor="middle" x="285.8542" y="-81.4935" font-family="Times,serif" font-size="14.00" fill="#000000">q3</text>
</g>
<!-- q2&#45;&gt;q3 -->
<g id="edge6" class="edge">
<title>q2-&gt;q3</title>
<path fill="none" stroke="#000000" d="M216.6459,-57.5049C227.3826,-61.878 241.0565,-67.4473 253.4097,-72.4788"/>
<polygon fill="#000000" stroke="#000000" points="252.3707,-75.8348 262.9522,-76.3655 255.0112,-69.3519 252.3707,-75.8348"/>
<text text-anchor="middle" x="239.6607" y="-71.8935" font-family="Times,serif" font-size="14.00" fill="#000000">1</text>
</g>
<!-- q3&#45;&gt;q1 -->
<g id="edge8" class="edge">
<title>q3-&gt;q1</title>
<path fill="none" stroke="#000000" d="M261.0365,-87.7329C255.1788,-88.1323 248.9528,-88.4902 243.1607,-88.6935 202.5086,-90.12 191.8777,-90.4983 151.7738,-83.6935 148.869,-83.2006 145.8708,-82.5714 142.8889,-81.8643"/>
<polygon fill="#000000" stroke="#000000" points="143.5349,-78.4149 132.9725,-79.2444 141.7468,-85.1827 143.5349,-78.4149"/>
<text text-anchor="middle" x="197.4673" y="-93.8935" font-family="Times,serif" font-size="14.00" fill="#000000">1</text>
</g>
<!-- q3&#45;&gt;q3 -->
<g id="edge7" class="edge">
<title>q3-&gt;q3</title>
<path fill="none" stroke="#000000" d="M277.3639,-108.9685C276.5553,-119.3813 279.3854,-128.3869 285.8542,-128.3869 289.9982,-128.3869 292.6489,-124.691 293.8064,-119.2969"/>
<polygon fill="#000000" stroke="#000000" points="297.3193,-119.137 294.3444,-108.9685 290.3288,-118.7728 297.3193,-119.137"/>
<text text-anchor="middle" x="285.8542" y="-132.5869" font-family="Times,serif" font-size="14.00" fill="#000000">0</text>
</g>
</g>
</svg>