<?xml version="1.0" encoding="UTF-8" standalone="no"?><!DOCTYPE svg PUBLIC "-//W3C//DTD SVG 1.1//EN" "http://www.w3.org/Graphics/SVG/1.1/DTD/svg11.dtd"><!-- Generated by graphviz version 2.40.1 (20161225.0304)
 --><!-- Title: AFD_a Pages: 1 --><svg xmlns="http://www.w3.org/2000/svg" xmlns:xlink="http://www.w3.org/1999/xlink" width="225pt" height="88pt" viewBox="0.00 0.00 225.38 88.19">
<g id="graph0" class="graph" transform="scale(1 1) rotate(0) translate(4 84.1869)">
<title>AFD_a</title>
<polygon fill="#ffffff" stroke="transparent" points="-4,4 -4,-84.1869 221.3753,-84.1869 221.3753,4 -4,4"/>
<!-- q0 -->
<g id="node1" class="node">
<title>q0</title>
<ellipse fill="none" stroke="#000000" cx="24.6935" cy="-24.6935" rx="20.8568" ry="20.8568"/>
<ellipse fill="none" stroke="#000000" cx="24.6935" cy="-24.6935" rx="24.8884" ry="24.8884"/>
<text text-anchor="middle" x="24.6935" y="-20.4935" font-family="Times,serif" font-size="14.00" fill="#000000">q0</text>
</g>
<!-- q1 -->
<g id="node2" class="node">
<title>q1</title>
<ellipse fill="none" stroke="#000000" cx="112.295" cy="-24.6935" rx="20.8887" ry="20.8887"/>
<text text-anchor="middle" x="112.295" y="-20.4935" font-family="Times,serif" font-size="14.00" fill="#000000">q1</text>
</g>
<!-- q0&#45;&gt;q1 -->
<g id="edge1" class="edge">
<title>q0-&gt;q1</title>
<path fill="none" stroke="#000000" d="M49.5622,-24.6935C59.3984,-24.6935 70.8118,-24.6935 81.1857,-24.6935"/>
<polygon fill="#000000" stroke="#000000" points="81.5104,-28.1935 91.5103,-24.6935 81.5103,-21.1935 81.5104,-28.1935"/>
<text text-anchor="middle" x="70.4942" y="-28.8935" font-family="Times,serif" font-size="14.00" fill="#000000">a</text>
</g>
<!-- q1&#45;&gt;q1 -->
<g id="edge2" class="edge">
<title>q1-&gt;q1</title>
<path fill="none" stroke="#000000" d="M105.0586,-44.2043C103.9453,-54.2929 106.3575,-63.3869 112.295,-63.3869 116.0987,-63.3869 118.4556,-59.6547 119.3656,-54.3198"/>
<polygon fill="#000000" stroke="#000000" points="122.867,-54.2603 119.5313,-44.2043 115.8679,-54.1456 122.867,-54.2603"/>
<text text-anchor="middle" x="112.295" y="-67.5869" font-family="Times,serif" font-size="14.00" fill="#000000">a</text>
</g>
<!-- q2 -->
<g id="node3" class="node">
<title>q2</title>
<ellipse fill="none" stroke="#000000" cx="196.6819" cy="-24.6935" rx="20.8887" ry="20.8887"/>
<text text-anchor="middle" x="196.6819" y="-20.4935" font-family="Times,serif" font-size="14.00" fill="#000000">q2</text>
</g>
<!-- q1&#45;&gt;q2 -->
<g id="edge3" class="edge">
<title>q1-&gt;q2</title>
<path fill="none" stroke="#000000" d="M133.1546,-24.6935C142.8917,-24.6935 154.6858,-24.6935 165.4555,-24.6935"/>
<polygon fill="#000000" stroke="#000000" points="165.7697,-28.1935 175.7697,-24.6935 165.7696,-21.1935 165.7697,-28.1935"/>
<text text-anchor="middle" x="154.4884" y="-28.8935" font-family="Times,serif" font-size="14.00" fill="#000000">b</text>
</g>
<!-- q2&#45;&gt;q2 -->
<g id="edge4" class="edge">
<title>q2-&gt;q2</title>
<path fill="none" stroke="#000000" d="M189.0837,-44.2043C187.9148,-54.2929 190.4475,-63.3869 196.6819,-63.3869 200.6758,-63.3869 203.1505,-59.6547 204.1061,-54.3198"/>
<polygon fill="#000000" stroke="#000000" points="207.6075,-54.263 204.28,-44.2043 200.6085,-54.1426 207.6075,-54.263"/>
<text text-anchor="middle" x="196.6819" y="-67.5869" font-family="Times,serif" font-size="14.00" fill="#000000">b</text>
</g>
</g>
</svg>