<?xml version="1.0" encoding="UTF-8" standalone="no"?><!DOCTYPE svg PUBLIC "-//W3C//DTD SVG 1.1//EN" "http://www.w3.org/Graphics/SVG/1.1/DTD/svg11.dtd"><!-- Generated by graphviz version 2.40.1 (20161225.0304)
 --><!-- Title: AFD_b Pages: 1 --><svg xmlns="http://www.w3.org/2000/svg" xmlns:xlink="http://www.w3.org/1999/xlink" width="226pt" height="131pt" viewBox="0.00 0.00 226.16 131.19">
<g id="graph0" class="graph" transform="scale(1 1) rotate(0) translate(4 127.1869)">
<title>AFD_b</title>
<polygon fill="#ffffff" stroke="transparent" points="-4,4 -4,-127.1869 222.1607,-127.1869 222.1607,4 -4,4"/>
<!-- q0 -->
<g id="node1" class="node">
<title>q0</title>
<ellipse fill="none" stroke="#000000" cx="20.6935" cy="-20.6935" rx="20.8887" ry="20.8887"/>
<text text-anchor="middle" x="20.6935" y="-16.4935" font-family="Times,serif" font-size="14.00" fill="#000000">q0</text>
</g>
<!-- q1 -->
<g id="node2" class="node">
<title>q1</title>
<ellipse fill="none" stroke="#000000" cx="109.0804" cy="-63.6935" rx="20.8568" ry="20.8568"/>
<ellipse fill="none" stroke="#000000" cx="109.0804" cy="-63.6935" rx="24.8884" ry="24.8884"/>
<text text-anchor="middle" x="109.0804" y="-59.4935" font-family="Times,serif" font-size="14.00" fill="#000000">q1</text>
</g>
<!-- q0&#45;&gt;q1 -->
<g id="edge1" class="edge">
<title>q0-&gt;q1</title>
<path fill="none" stroke="#000000" d="M39.438,-29.8126C50.4217,-35.1562 64.5867,-42.0474 77.2711,-48.2184"/>
<polygon fill="#000000" stroke="#000000" points="76.0817,-51.5318 86.6052,-52.7593 79.144,-45.2372 76.0817,-51.5318"/>
<text text-anchor="middle" x="62.8869" y="-45.8935" font-family="Times,serif" font-size="14.00" fill="#000000">b</text>
</g>
<!-- q1&#45;&gt;q1 -->
<g id="edge2" class="edge">
<title>q1-&gt;q1</title>
<path fill="none" stroke="#000000" d="M100.5901,-86.9685C99.7815,-97.3813 102.6116,-106.3869 109.0804,-106.3869 113.2244,-106.3869 115.8751,-102.691 117.0325,-97.2969"/>
<polygon fill="#000000" stroke="#000000" points="120.5455,-97.137 117.5706,-86.9685 113.555,-96.7728 120.5455,-97.137"/>
<text text-anchor="middle" x="109.0804" y="-110.5869" font-family="Times,serif" font-size="14.00" fill="#000000">a</text>
</g>
<!-- q2 -->
<g id="node3" class="node">
<title>q2</title>
<ellipse fill="none" stroke="#000000" cx="197.4673" cy="-20.6935" rx="20.8887" ry="20.8887"/>
<text text-anchor="middle" x="197.4673" y="-16.4935" font-family="Times,serif" font-size="14.00" fill="#000000">q2</text>
</g>
<!-- q1&#45;&gt;q2 -->
<g id="edge3" class="edge">
<title>q1-&gt;q2</title>
<path fill="none" stroke="#000000" d="M131.3841,-52.8427C142.9251,-47.2281 157.1306,-40.3172 169.4096,-34.3434"/>
<polygon fill="#000000" stroke="#000000" points="171.2953,-37.3183 178.7564,-29.7962 168.2329,-31.0237 171.2953,-37.3183"/>
<text text-anchor="middle" x="155.2738" y="-45.8935" font-family="Times,serif" font-size="14.00" fill="#000000">b</text>
</g>
<!-- q2&#45;&gt;q0 -->
<g id="edge4" class="edge">
<title>q2-&gt;q0</title>
<path fill="none" stroke="#000000" d="M176.8726,-17.5257C164.4286,-15.7729 148.2296,-13.7753 133.7738,-12.8935 111.8648,-11.5569 106.2959,-11.5569 84.3869,-12.8935 73.5451,-13.5548 61.7227,-14.8439 51.2393,-16.1865"/>
<polygon fill="#000000" stroke="#000000" points="50.732,-12.7231 41.2882,-17.5257 51.6657,-19.6606 50.732,-12.7231"/>
<text text-anchor="middle" x="109.0804" y="-16.8935" font-family="Times,serif" font-size="14.00" fill="#000000">b</text>
</g>
</g>
</svg>