<?xml version="1.0" encoding="UTF-8" standalone="no"?><!DOCTYPE svg PUBLIC "-//W3C//DTD SVG 1.1//EN" "http://www.w3.org/Graphics/SVG/1.1/DTD/svg11.dtd"><!-- Generated by graphviz version 2.40.1 (20161225.0304)
 --><!-- Title: AFD_c Pages: 1 --><svg xmlns="http://www.w3.org/2000/svg" xmlns:xlink="http://www.w3.org/1999/xlink" width="225pt" height="92pt" viewBox="0.00 0.00 225.38 92.19">
<g id="graph0" class="graph" transform="scale(1 1) rotate(0) translate(4 88.1869)">
<title>AFD_c</title>
<polygon fill="#ffffff" stroke="transparent" points="-4,4 -4,-88.1869 221.3753,-88.1869 221.3753,4 -4,4"/>
<!-- q0 -->
<g id="node1" class="node">
<title>q0</title>
<ellipse fill="none" stroke="#000000" cx="20.6935" cy="-24.6935" rx="20.8887" ry="20.8887"/>
<text text-anchor="middle" x="20.6935" y="-20.4935" font-family="Times,serif" font-size="14.00" fill="#000000">q0</text>
</g>
<!-- q1 -->
<g id="node2" class="node">
<title>q1</title>
<ellipse fill="none" stroke="#000000" cx="104.295" cy="-24.6935" rx="20.8887" ry="20.8887"/>
<text text-anchor="middle" x="104.295" y="-20.4935" font-family="Times,serif" font-size="14.00" fill="#000000">q1</text>
</g>
<!-- q0&#45;&gt;q1 -->
<g id="edge1" class="edge">
<title>q0-&gt;q1</title>
<path fill="none" stroke="#000000" d="M41.7896,-24.6935C51.3672,-24.6935 62.8849,-24.6935 73.4098,-24.6935"/>
<polygon fill="#000000" stroke="#000000" points="73.4952,-28.1936 83.4951,-24.6935 73.4951,-21.1936 73.4952,-28.1936"/>
<text text-anchor="middle" x="62.4942" y="-28.8935" font-family="Times,serif" font-size="14.00" fill="#000000">a</text>
</g>
<!-- q1&#45;&gt;q1 -->
<g id="edge2" class="edge">
<title>q1-&gt;q1</title>
<path fill="none" stroke="#000000" d="M97.0586,-44.2043C95.9453,-54.2929 98.3575,-63.3869 104.295,-63.3869 108.0987,-63.3869 110.4556,-59.6547 111.3656,-54.3198"/>
<polygon fill="#000000" stroke="#000000" points="114.867,-54.2603 111.5313,-44.2043 107.8679,-54.1456 114.867,-54.2603"/>
<text text-anchor="middle" x="104.295" y="-67.5869" font-family="Times,serif" font-size="14.00" fill="#000000">b</text>
</g>
<!-- q2 -->
<g id="node3" class="node">
<title>q2</title>
<ellipse fill="none" stroke="#000000" cx="192.6819" cy="-24.6935" rx="20.8568" ry="20.8568"/>
<ellipse fill="none" stroke="#000000" cx="192.6819" cy="-24.6935" rx="24.8884" ry="24.8884"/>
<text text-anchor="middle" x="192.6819" y="-20.4935" font-family="Times,serif" font-size="14.00" fill="#000000">q2</text>
</g>
<!-- q1&#45;&gt;q2 -->
<g id="edge3" class="edge">
<title>q1-&gt;q2</title>
<path fill="none" stroke="#000000" d="M125.2414,-24.6935C134.9129,-24.6935 146.6608,-24.6935 157.6243,-24.6935"/>
<polygon fill="#000000" stroke="#000000" points="157.8021,-28.1936 167.802,-24.6935 157.802,-21.1936 157.8021,-28.1936"/>
<text text-anchor="middle" x="146.4884" y="-28.8935" font-family="Times,serif" font-size="14.00" fill="#000000">a</text>
</g>
<!-- q2&#45;&gt;q1 -->
<g id="edge5" class="edge">
<title>q2-&gt;q1</title>
<path fill="none" stroke="#000000" d="M172.8428,-9.9262C163.9278,-4.9978 153.1464,-1.3362 142.9884,-3.8935 138.8282,-4.9408 134.6281,-6.5321 130.6065,-8.3777"/>
<polygon fill="#000000" stroke="#000000" points="128.9243,-5.3072 121.6494,-13.0096 132.1397,-11.5251 128.9243,-5.3072"/>
<text text-anchor="middle" x="146.4884" y="-7.8935" font-family="Times,serif" font-size="14.00" fill="#000000">b</text>
</g>
<!-- q2&#45;&gt;q2 -->
<g id="edge4" class="edge">
<title>q2-&gt;q2</title>
<path fill="none" stroke="#000000" d="M184.1916,-47.9685C183.383,-58.3813 186.2131,-67.3869 192.6819,-67.3869 196.8259,-67.3869 199.4766,-63.691 200.6341,-58.2969"/>
<polygon fill="#000000" stroke="#000000" points="204.147,-58.137 201.1721,-47.9685 197.1565,-57.7728 204.147,-58.137"/>
<text text-anchor="middle" x="192.6819" y="-71.5869" font-family="Times,serif" font-size="14.00" fill="#000000">a</text>
</g>
</g>
</svg>