<?xml version="1.0" encoding="UTF-8" standalone="no"?><!DOCTYPE svg PUBLIC "-//W3C//DTD SVG 1.1//EN" "http://www.w3.org/Graphics/SVG/1.1/DTD/svg11.dtd"><!-- Generated by graphviz version 2.40.1 (20161225.0304)
 --><!-- Title: AFD_d Pages: 1 --><svg xmlns="http://www.w3.org/2000/svg" xmlns:xlink="http://www.w3.org/1999/xlink" width="142pt" height="92pt" viewBox="0.00 0.00 141.77 92.19">
<g id="graph0" class="graph" transform="scale(1 1) rotate(0) translate(4 88.1869)">
<title>AFD_d</title>
<polygon fill="#ffffff" stroke="transparent" points="-4,4 -4,-88.1869 137.7738,-88.1869 137.7738,4 -4,4"/>
<!-- q0 -->
<g id="node1" class="node">
<title>q0</title>
<ellipse fill="none" stroke="#000000" cx="24.6935" cy="-24.6935" rx="20.8568" ry="20.8568"/>
<ellipse fill="none" stroke="#000000" cx="24.6935" cy="-24.6935" rx="24.8884" ry="24.8884"/>
<text text-anchor="middle" x="24.6935" y="-20.4935" font-family="Times,serif" font-size="14.00" fill="#000000">q0</text>
</g>
<!-- q0&#45;&gt;q0 -->
<g id="edge2" class="edge">
<title>q0-&gt;q0</title>
<path fill="none" stroke="#000000" d="M16.2032,-47.9685C15.3946,-58.3813 18.2247,-67.3869 24.6935,-67.3869 28.8375,-67.3869 31.4882,-63.691 32.6456,-58.2969"/>
<polygon fill="#000000" stroke="#000000" points="36.1586,-58.137 33.1837,-47.9685 29.1681,-57.7728 36.1586,-58.137"/>
<text text-anchor="middle" x="24.6935" y="-71.5869" font-family="Times,serif" font-size="14.00" fill="#000000">a</text>
</g>
<!-- q1 -->
<g id="node2" class="node">
<title>q1</title>
<ellipse fill="none" stroke="#000000" cx="113.0804" cy="-24.6935" rx="20.8887" ry="20.8887"/>
<text text-anchor="middle" x="113.0804" y="-20.4935" font-family="Times,serif" font-size="14.00" fill="#000000">q1</text>
</g>
<!-- q0&#45;&gt;q1 -->
<g id="edge1" class="edge">
<title>q0-&gt;q1</title>
<path fill="none" stroke="#000000" d="M49.7852,-24.6935C59.814,-24.6935 71.4679,-24.6935 82.0223,-24.6935"/>
<polygon fill="#000000" stroke="#000000" points="82.1094,-28.1936 92.1094,-24.6935 82.1094,-21.1936 82.1094,-28.1936"/>
<text text-anchor="middle" x="70.8869" y="-28.8935" font-family="Times,serif" font-size="14.00" fill="#000000">b</text>
</g>
<!-- q1&#45;&gt;q0 -->
<g id="edge3" class="edge">
<title>q1-&gt;q0</title>
<path fill="none" stroke="#000000" d="M95.7259,-13.0096C89.3049,-9.3365 81.7828,-5.7553 74.3869,-3.8935 67.562,-2.1753 60.4557,-3.2645 53.8231,-5.659"/>
<polygon fill="#000000" stroke="#000000" points="52.1589,-2.5717 44.5325,-9.9262 55.0807,-8.9328 52.1589,-2.5717"/>
<text text-anchor="middle" x="70.8869" y="-7.8935" font-family="Times,serif" font-size="14.00" fill="#000000">b</text>
</g>
<!-- q1&#45;&gt;q1 -->
<g id="edge4" class="edge">
<title>q1-&gt;q1</title>
<path fill="none" stroke="#000000" d="M105.4822,-44.2043C104.3133,-54.2929 106.846,-63.3869 113.0804,-63.3869 117.0743,-63.3869 119.549,-59.6547 120.5046,-54.3198"/>
<polygon fill="#000000" stroke="#000000" points="124.006,-54.263 120.6785,-44.2043 117.007,-54.1426 124.006,-54.263"/>
<text text-anchor="middle" x="113.0804" y="-67.5869" font-family="Times,serif" font-size="14.00" fill="#000000">a</text>
</g>
</g>
</svg>