<?xml version="1.0" encoding="UTF-8" standalone="no"?><!DOCTYPE svg PUBLIC "-//W3C//DTD SVG 1.1//EN" "http://www.w3.org/Graphics/SVG/1.1/DTD/svg11.dtd"><!-- Generated by graphviz version 2.40.1 (20161225.0304)
 --><!-- Title: AFD_e Pages: 1 --><svg xmlns="http://www.w3.org/2000/svg" xmlns:xlink="http://www.w3.org/1999/xlink" width="226pt" height="92pt" viewBox="0.00 0.00 226.16 92.19">
<g id="graph0" class="graph" transform="scale(1 1) rotate(0) translate(4 88.1869)">
<title>AFD_e</title>
<polygon fill="#ffffff" stroke="transparent" points="-4,4 -4,-88.1869 222.1607,-88.1869 222.1607,4 -4,4"/>
<!-- q0 -->
<g id="node1" class="node">
<title>q0</title>
<ellipse fill="none" stroke="#000000" cx="20.6935" cy="-24.6935" rx="20.8887" ry="20.8887"/>
<text text-anchor="middle" x="20.6935" y="-20.4935" font-family="Times,serif" font-size="14.00" fill="#000000">q0</text>
</g>
<!-- q1 -->
<g id="node2" class="node">
<title>q1</title>
<ellipse fill="none" stroke="#000000" cx="105.0804" cy="-24.6935" rx="20.8887" ry="20.8887"/>
<text text-anchor="middle" x="105.0804" y="-20.4935" font-family="Times,serif" font-size="14.00" fill="#000000">q1</text>
</g>
<!-- q0&#45;&gt;q1 -->
<g id="edge1" class="edge">
<title>q0-&gt;q1</title>
<path fill="none" stroke="#000000" d="M41.5531,-24.6935C51.2902,-24.6935 63.0843,-24.6935 73.854,-24.6935"/>
<polygon fill="#000000" stroke="#000000" points="74.1682,-28.1935 84.1682,-24.6935 74.1681,-21.1935 74.1682,-28.1935"/>
<text text-anchor="middle" x="62.8869" y="-28.8935" font-family="Times,serif" font-size="14.00" fill="#000000">b</text>
</g>
<!-- q1&#45;&gt;q0 -->
<g id="edge5" class="edge">
<title>q1-&gt;q0</title>
<path fill="none" stroke="#000000" d="M87.7259,-13.0096C81.3049,-9.3365 73.7828,-5.7553 66.3869,-3.8935 59.4586,-2.1493 52.2824,-3.6545 45.7275,-6.5071"/>
<polygon fill="#000000" stroke="#000000" points="43.785,-3.5792 36.6694,-11.4289 47.1271,-9.7298 43.785,-3.5792"/>
<text text-anchor="middle" x="62.8869" y="-7.8935" font-family="Times,serif" font-size="14.00" fill="#000000">b</text>
</g>
<!-- q2 -->
<g id="node3" class="node">
<title>q2</title>
<ellipse fill="none" stroke="#000000" cx="193.4673" cy="-24.6935" rx="20.8568" ry="20.8568"/>
<ellipse fill="none" stroke="#000000" cx="193.4673" cy="-24.6935" rx="24.8884" ry="24.8884"/>
<text text-anchor="middle" x="193.4673" y="-20.4935" font-family="Times,serif" font-size="14.00" fill="#000000">q2</text>
</g>
<!-- q1&#45;&gt;q2 -->
<g id="edge2" class="edge">
<title>q1-&gt;q2</title>
<path fill="none" stroke="#000000" d="M126.0268,-24.6935C135.6983,-24.6935 147.4462,-24.6935 158.4097,-24.6935"/>
<polygon fill="#000000" stroke="#000000" points="158.5875,-28.1936 168.5874,-24.6935 158.5874,-21.1936 158.5875,-28.1936"/>
<text text-anchor="middle" x="147.2738" y="-28.8935" font-family="Times,serif" font-size="14.00" fill="#000000">a</text>
</g>
<!-- q2&#45;&gt;q1 -->
<g id="edge4" class="edge">
<title>q2-&gt;q1</title>
<path fill="none" stroke="#000000" d="M173.6282,-9.9262C164.7132,-4.9978 153.9318,-1.3362 143.7738,-3.8935 139.6136,-4.9408 135.4135,-6.5321 131.3919,-8.3777"/>
<polygon fill="#000000" stroke="#000000" points="129.7097,-5.3072 122.4348,-13.0096 132.9251,-11.5251 129.7097,-5.3072"/>
<text text-anchor="middle" x="147.2738" y="-7.8935" font-family="Times,serif" font-size="14.00" fill="#000000">b</text>
</g>
<!-- q2&#45;&gt;q2 -->
<g id="edge3" class="edge">
<title>q2-&gt;q2</title>
<path fill="none" stroke="#000000" d="M184.977,-47.9685C184.1684,-58.3813 186.9985,-67.3869 193.4673,-67.3869 197.6113,-67.3869 200.262,-63.691 201.4195,-58.2969"/>
<polygon fill="#000000" stroke="#000000" points="204.9324,-58.137 201.9575,-47.9685 197.9419,-57.7728 204.9324,-58.137"/>
<text text-anchor="middle" x="193.4673" y="-71.5869" font-family="Times,serif" font-size="14.00" fill="#000000">a</text>
</g>
</g>
</svg>