<?xml version="1.0" encoding="UTF-8" standalone="no"?><!DOCTYPE svg PUBLIC "-//W3C//DTD SVG 1.1//EN" "http://www.w3.org/Graphics/SVG/1.1/DTD/svg11.dtd"><!-- Generated by graphviz version 2.40.1 (20161225.0304)
 --><!-- Title: AFD_f Pages: 1 --><svg xmlns="http://www.w3.org/2000/svg" xmlns:xlink="http://www.w3.org/1999/xlink" width="311pt" height="84pt" viewBox="0.00 0.00 310.55 84.19">
<g id="graph0" class="graph" transform="scale(1 1) rotate(0) translate(4 80.1869)">
<title>AFD_f</title>
<polygon fill="#ffffff" stroke="transparent" points="-4,4 -4,-80.1869 306.5476,-80.1869 306.5476,4 -4,4"/>
<!-- q0 -->
<g id="node1" class="node">
<title>q0</title>
<ellipse fill="none" stroke="#000000" cx="20.6935" cy="-20.6935" rx="20.8887" ry="20.8887"/>
<text text-anchor="middle" x="20.6935" y="-16.4935" font-family="Times,serif" font-size="14.00" fill="#000000">q0</text>
</g>
<!-- q0&#45;&gt;q0 -->
<g id="edge7" class="edge">
<title>q0-&gt;q0</title>
<path fill="none" stroke="#000000" d="M13.0953,-40.2043C11.9264,-50.2929 14.4591,-59.3869 20.6935,-59.3869 24.6873,-59.3869 27.1621,-55.6547 28.1177,-50.3198"/>
<polygon fill="#000000" stroke="#000000" points="31.6191,-50.263 28.2916,-40.2043 24.6201,-50.1426 31.6191,-50.263"/>
<text text-anchor="middle" x="20.6935" y="-63.5869" font-family="Times,serif" font-size="14.00" fill="#000000">b</text>
</g>
<!-- q1 -->
<g id="node2" class="node">
<title>q1</title>
<ellipse fill="none" stroke="#000000" cx="105.0804" cy="-50.6935" rx="20.8887" ry="20.8887"/>
<text text-anchor="middle" x="105.0804" y="-46.4935" font-family="Times,serif" font-size="14.00" fill="#000000">q1</text>
</g>
<!-- q0&#45;&gt;q1 -->
<g id="edge1" class="edge">
<title>q0-&gt;q1</title>
<path fill="none" stroke="#000000" d="M39.3033,-30.1705C45.5822,-33.146 52.6962,-36.2805 59.3869,-38.6935 64.3706,-40.4908 69.7485,-42.1451 75.0042,-43.6141"/>
<polygon fill="#000000" stroke="#000000" points="74.2634,-47.0383 84.825,-46.1996 76.0456,-40.2689 74.2634,-47.0383"/>
<text text-anchor="middle" x="62.8869" y="-44.8935" font-family="Times,serif" font-size="14.00" fill="#000000">a</text>
</g>
<!-- q1&#45;&gt;q0 -->
<g id="edge3" class="edge">
<title>q1-&gt;q0</title>
<path fill="none" stroke="#000000" d="M91.272,-34.8048C84.5161,-28.2333 75.8121,-21.3508 66.3869,-17.8935 61.6908,-16.1708 56.5419,-15.4645 51.4468,-15.3788"/>
<polygon fill="#000000" stroke="#000000" points="51.0159,-11.8972 41.226,-15.9479 51.4052,-18.8864 51.0159,-11.8972"/>
<text text-anchor="middle" x="62.8869" y="-21.8935" font-family="Times,serif" font-size="14.00" fill="#000000">b</text>
</g>
<!-- q2 -->
<g id="node3" class="node">
<title>q2</title>
<ellipse fill="none" stroke="#000000" cx="193.4673" cy="-50.6935" rx="20.8568" ry="20.8568"/>
<ellipse fill="none" stroke="#000000" cx="193.4673" cy="-50.6935" rx="24.8884" ry="24.8884"/>
<text text-anchor="middle" x="193.4673" y="-46.4935" font-family="Times,serif" font-size="14.00" fill="#000000">q2</text>
</g>
<!-- q1&#45;&gt;q2 -->
<g id="edge2" class="edge">
<title>q1-&gt;q2</title>
<path fill="none" stroke="#000000" d="M126.0268,-50.6935C135.6983,-50.6935 147.4462,-50.6935 158.4097,-50.6935"/>
<polygon fill="#000000" stroke="#000000" points="158.5875,-54.1936 168.5874,-50.6935 158.5874,-47.1936 158.5875,-54.1936"/>
<text text-anchor="middle" x="147.2738" y="-54.8935" font-family="Times,serif" font-size="14.00" fill="#000000">b</text>
</g>
<!-- q3 -->
<g id="node4" class="node">
<title>q3</title>
<ellipse fill="none" stroke="#000000" cx="281.8542" cy="-20.6935" rx="20.8887" ry="20.8887"/>
<text text-anchor="middle" x="281.8542" y="-16.4935" font-family="Times,serif" font-size="14.00" fill="#000000">q3</text>
</g>
<!-- q2&#45;&gt;q3 -->
<g id="edge4" class="edge">
<title>q2-&gt;q3</title>
<path fill="none" stroke="#000000" d="M217.7586,-45.843C225.9308,-43.9441 235.0336,-41.5334 243.1607,-38.6935 246.7277,-37.447 250.4092,-35.9827 254.0179,-34.437"/>
<polygon fill="#000000" stroke="#000000" points="255.6049,-37.5606 263.272,-30.2485 252.7185,-31.1834 255.6049,-37.5606"/>
<text text-anchor="middle" x="239.6607" y="-44.8935" font-family="Times,serif" font-size="14.00" fill="#000000">a</text>
</g>
<!-- q3&#45;&gt;q0 -->
<g id="edge6" class="edge">
<title>q3-&gt;q0</title>
<path fill="none" stroke="#000000" d="M261.5242,-15.0468C255.6469,-13.6652 249.1904,-12.3855 243.1607,-11.6935 162.0161,-2.3807 140.5315,-2.3807 59.3869,-11.6935 56.6547,-12.007 53.8348,-12.4413 51.021,-12.951"/>
<polygon fill="#000000" stroke="#000000" points="50.0925,-9.5694 41.0234,-15.0468 51.5288,-16.4205 50.0925,-9.5694"/>
<text text-anchor="middle" x="147.2738" y="-8.8935" font-family="Times,serif" font-size="14.00" fill="#000000">a</text>
</g>
<!-- q3&#45;&gt;q2 -->
<g id="edge5" class="edge">
<title>q3-&gt;q2</title>
<path fill="none" stroke="#000000" d="M261.3911,-16.1445C253.3425,-15.1973 244.1375,-15.1831 236.1607,-17.8935 230.2644,-19.8969 224.5454,-23.0792 219.3109,-26.691"/>
<polygon fill="#000000" stroke="#000000" points="216.8264,-24.185 211.0131,-33.0426 221.0812,-29.7435 216.8264,-24.185"/>
<text text-anchor="middle" x="239.6607" y="-21.8935" font-family="Times,serif" font-size="14.00" fill="#000000">b</text>
</g>
</g>
</svg>