<?xml version="1.0" encoding="UTF-8" standalone="no"?><!DOCTYPE svg PUBLIC "-//W3C//DTD SVG 1.1//EN" "http://www.w3.org/Graphics/SVG/1.1/DTD/svg11.dtd"><!-- Generated by graphviz version 2.40.1 (20161225.0304)
 --><!-- Title: AFD_g Pages: 1 --><svg xmlns="http://www.w3.org/2000/svg" xmlns:xlink="http://www.w3.org/1999/xlink" width="225pt" height="107pt" viewBox="0.00 0.00 225.38 107.22">
<g id="graph0" class="graph" transform="scale(1 1) rotate(0) translate(4 103.2162)">
<title>AFD_g</title>
<polygon fill="#ffffff" stroke="transparent" points="-4,4 -4,-103.2162 221.3753,-103.2162 221.3753,4 -4,4"/>
<!-- q0 -->
<g id="node1" class="node">
<title>q0</title>
<ellipse fill="none" stroke="#000000" cx="20.6935" cy="-24.5228" rx="20.8887" ry="20.8887"/>
<text text-anchor="middle" x="20.6935" y="-20.3228" font-family="Times,serif" font-size="14.00" fill="#000000">q0</text>
</g>
<!-- q1 -->
<g id="node2" class="node">
<title>q1</title>
<ellipse fill="none" stroke="#000000" cx="108.295" cy="-74.5228" rx="20.8568" ry="20.8568"/>
<ellipse fill="none" stroke="#000000" cx="108.295" cy="-74.5228" rx="24.8884" ry="24.8884"/>
<text text-anchor="middle" x="108.295" y="-70.3228" font-family="Times,serif" font-size="14.00" fill="#000000">q1</text>
</g>
<!-- q0&#45;&gt;q1 -->
<g id="edge1" class="edge">
<title>q0-&gt;q1</title>
<path fill="none" stroke="#000000" d="M34.9133,-40.1758C41.7523,-46.9253 50.4075,-54.4237 59.3869,-59.5228 63.999,-62.1418 69.1208,-64.3552 74.2634,-66.2097"/>
<polygon fill="#000000" stroke="#000000" points="73.4592,-69.6272 84.0503,-69.3458 75.5953,-62.9611 73.4592,-69.6272"/>
<text text-anchor="middle" x="62.4942" y="-66.7228" font-family="Times,serif" font-size="14.00" fill="#000000">a</text>
</g>
<!-- q2 -->
<g id="node3" class="node">
<title>q2</title>
<ellipse fill="none" stroke="#000000" cx="196.6819" cy="-24.5228" rx="20.8887" ry="20.8887"/>
<text text-anchor="middle" x="196.6819" y="-20.3228" font-family="Times,serif" font-size="14.00" fill="#000000">q2</text>
</g>
<!-- q0&#45;&gt;q2 -->
<g id="edge2" class="edge">
<title>q0-&gt;q2</title>
<path fill="none" stroke="#000000" d="M41.6622,-24.1894C53.8941,-24.0116 69.6211,-23.8116 83.6015,-23.7228 105.5508,-23.5832 111.0391,-23.5849 132.9884,-23.7228 143.5761,-23.7892 155.1532,-23.9179 165.4987,-24.0529"/>
<polygon fill="#000000" stroke="#000000" points="165.6938,-27.5558 175.741,-24.1936 165.79,-20.5565 165.6938,-27.5558"/>
<text text-anchor="middle" x="108.295" y="-27.7228" font-family="Times,serif" font-size="14.00" fill="#000000">b</text>
</g>
<!-- q1&#45;&gt;q0 -->
<g id="edge3" class="edge">
<title>q1-&gt;q0</title>
<path fill="none" stroke="#000000" d="M90.7566,-57.1352C83.4543,-50.6426 74.5898,-43.6568 65.6015,-38.7228 60.9714,-36.1811 55.8187,-34.018 50.702,-32.2043"/>
<polygon fill="#000000" stroke="#000000" points="51.6439,-28.8312 41.0536,-29.1393 49.5246,-35.5027 51.6439,-28.8312"/>
<text text-anchor="middle" x="62.4942" y="-42.7228" font-family="Times,serif" font-size="14.00" fill="#000000">a</text>
</g>
<!-- q1&#45;&gt;q2 -->
<g id="edge4" class="edge">
<title>q1-&gt;q2</title>
<path fill="none" stroke="#000000" d="M132.6764,-69.4691C141.029,-67.1486 150.2206,-63.9111 157.9884,-59.5228 163.8886,-56.1896 169.6447,-51.8154 174.8372,-47.2935"/>
<polygon fill="#000000" stroke="#000000" points="177.5323,-49.5668 182.4725,-40.1942 172.7657,-44.4403 177.5323,-49.5668"/>
<text text-anchor="middle" x="154.4884" y="-66.7228" font-family="Times,serif" font-size="14.00" fill="#000000">b</text>
</g>
<!-- q2&#45;&gt;q0 -->
<g id="edge6" class="edge">
<title>q2-&gt;q0</title>
<path fill="none" stroke="#000000" d="M177.5987,-16.1401C165.1644,-11.1458 148.4374,-5.2934 132.9884,-2.7228 111.3364,.88 105.2466,.9214 83.6015,-2.7228 72.1133,-4.6569 59.9199,-8.4472 49.3575,-12.3323"/>
<polygon fill="#000000" stroke="#000000" points="47.8691,-9.1552 39.8065,-16.0287 50.3957,-15.6834 47.8691,-9.1552"/>
<text text-anchor="middle" x="108.295" y="-6.7228" font-family="Times,serif" font-size="14.00" fill="#000000">b</text>
</g>
<!-- q2&#45;&gt;q1 -->
<g id="edge5" class="edge">
<title>q2-&gt;q1</title>
<path fill="none" stroke="#000000" d="M176.4205,-28.964C168.2267,-31.2262 158.8637,-34.425 150.9884,-38.7228 144.9412,-42.0228 138.9545,-46.2575 133.4625,-50.6513"/>
<polygon fill="#000000" stroke="#000000" points="131.1974,-47.983 125.8208,-57.1123 135.7169,-53.3285 131.1974,-47.983"/>
<text text-anchor="middle" x="154.4884" y="-42.7228" font-family="Times,serif" font-size="14.00" fill="#000000">a</text>
</g>
</g>
</svg>